<svg width="302" height="202" viewBox="0 0 302 202" fill="none" xmlns="http://www.w3.org/2000/svg">
<rect x="122" y="37.7134" width="16" height="144" fill="#F0F4F7"/>
<rect x="162" y="37.7134" width="16" height="144" fill="#F0F4F7"/>
<rect x="62" y="37.7134" width="16" height="144" fill="#F0F4F7"/>
<rect x="82" y="37.7134" width="16" height="144" fill="#F0F4F7"/>
<rect x="102" y="37.7134" width="16" height="144" fill="#F0F4F7"/>
<rect x="142" y="37.7134" width="16" height="144" fill="#F0F4F7"/>
<rect x="182" y="37.7134" width="16" height="144" fill="#F0F4F7"/>
<rect x="202" y="37.7134" width="16" height="144" fill="#F0F4F7"/>
<g filter="url(#filter0_d)">
<rect x="142" y="3" width="156" height="99" rx="4" fill="white"/>
</g>
<rect x="152.636" y="28.2354" width="37.2273" height="3.3" rx="1.65" fill="#A6B0B5"/>
<rect x="199.614" y="28.2354" width="17.7273" height="3.3" rx="1.65" fill="#A6B0B5"/>
<rect x="227.091" y="28.2354" width="17.7273" height="3.3" rx="1.65" fill="#A6B0B5"/>
<rect x="254.569" y="28.2354" width="31.9091" height="3.3" rx="1.65" fill="#A6B0B5"/>
<rect x="152.636" y="42.7942" width="37.2273" height="3.3" rx="1.65" fill="#A6B0B5"/>
<rect x="199.614" y="42.7942" width="17.7273" height="3.3" rx="1.65" fill="#A6B0B5"/>
<rect x="227.091" y="42.7942" width="17.7273" height="3.3" rx="1.65" fill="#A6B0B5"/>
<rect x="254.569" y="42.7942" width="31.9091" height="3.3" rx="1.65" fill="#A6B0B5"/>
<rect x="152.636" y="57.3525" width="37.2273" height="3.3" rx="1.65" fill="#A6B0B5"/>
<rect x="199.614" y="57.3525" width="17.7273" height="3.3" rx="1.65" fill="#A6B0B5"/>
<rect x="227.091" y="57.3525" width="17.7273" height="3.3" rx="1.65" fill="#A6B0B5"/>
<rect x="254.569" y="57.3525" width="31.9091" height="3.3" rx="1.65" fill="#A6B0B5"/>
<rect x="152.636" y="71.9119" width="37.2273" height="3.3" rx="1.65" fill="#A6B0B5"/>
<rect x="199.614" y="71.9119" width="17.7273" height="3.3" rx="1.65" fill="#A6B0B5"/>
<rect x="227.091" y="71.9119" width="17.7273" height="3.3" rx="1.65" fill="#A6B0B5"/>
<rect x="254.569" y="71.9119" width="31.9091" height="3.3" rx="1.65" fill="#A6B0B5"/>
<rect x="152.636" y="86.4705" width="37.2273" height="3.3" rx="1.65" fill="#A6B0B5"/>
<rect x="199.614" y="86.4705" width="17.7273" height="3.3" rx="1.65" fill="#A6B0B5"/>
<rect x="227.091" y="86.4705" width="17.7273" height="3.3" rx="1.65" fill="#A6B0B5"/>
<rect x="254.569" y="86.4705" width="31.9091" height="3.3" rx="1.65" fill="#A6B0B5"/>
<rect x="152.636" y="11.8643" width="64.7759" height="5.566" rx="2.783" fill="#2F3435"/>
<rect x="262.545" y="10.7646" width="23.9318" height="7.76471" rx="3.88235" fill="#006CFF"/>
<path d="M45.2492 64.2982L50.35 49.9368H70.8522L75.953 64.2982H82.3909L63.7705 13.5874H57.4317L38.8113 64.2982H45.2492ZM52.2813 44.4893L60.403 21.61H60.7992L68.9208 44.4893H52.2813Z" fill="#2F3435"/>
<path d="M100.689 65.1896C107.325 65.1896 110.792 61.624 111.98 59.1479H112.278V64.2982H118.121V39.24C118.121 27.1565 108.91 25.7699 104.057 25.7699C98.3123 25.7699 91.7754 27.7508 88.804 34.6839L94.3505 36.6648C95.6381 33.8915 98.6837 30.9202 104.255 30.9202C109.628 30.9202 112.278 33.7677 112.278 38.6457V38.8438C112.278 41.6665 109.405 41.4189 102.472 42.3103C95.4153 43.2265 87.7145 44.7865 87.7145 53.5024C87.7145 60.9307 93.4591 65.1896 100.689 65.1896ZM101.581 59.9403C96.9257 59.9403 93.5582 57.8603 93.5582 53.7995C93.5582 49.3425 97.619 47.9559 102.175 47.3616C104.651 47.0645 111.287 46.3712 112.278 45.1826V50.531C112.278 55.2852 108.514 59.9403 101.581 59.9403Z" fill="#2F3435"/>
<path d="M195.743 116.642C195.4 116.299 194.886 116.299 194.543 116.642L190 121.185L185.457 116.642C185.114 116.299 184.6 116.299 184.257 116.642C183.914 116.985 183.914 117.499 184.257 117.842L188.8 122.385L184.257 126.927C183.914 127.27 183.914 127.785 184.257 128.127C184.429 128.299 184.6 128.385 184.857 128.385C185.114 128.385 185.286 128.299 185.457 128.127L190 123.585L194.543 128.127C194.714 128.299 194.971 128.385 195.143 128.385C195.314 128.385 195.571 128.299 195.743 128.127C196.086 127.785 196.086 127.27 195.743 126.927L191.2 122.385L195.743 117.842C196.086 117.499 196.086 116.985 195.743 116.642Z" fill="#2F3435"/>
<path d="M204.227 119.134C204.552 118.786 205.101 118.776 205.439 119.114L210 123.675L214.561 119.114C214.899 118.776 215.448 118.786 215.773 119.134C216.083 119.466 216.074 119.984 215.753 120.305L210.581 125.477C210.26 125.798 209.74 125.798 209.419 125.477L204.247 120.305C203.926 119.984 203.917 119.466 204.227 119.134Z" fill="#2F3435"/>
<path d="M229.943 116.75C229.604 116.412 229.056 116.412 228.718 116.75C228.379 117.088 228.379 117.637 228.718 117.975L231.868 121.125H222.068C221.584 121.125 221.193 121.517 221.193 122C221.193 122.483 221.584 122.875 222.068 122.875H231.868L228.718 126.025C228.379 126.363 228.379 126.912 228.718 127.25C229.056 127.588 229.604 127.588 229.943 127.25L234.541 122.651C234.901 122.292 234.901 121.708 234.541 121.349L229.943 116.75Z" fill="#2F3435"/>
<rect y="162" width="118" height="20" fill="#003DC2"/>
<rect y="182" width="118" height="20" fill="#002C8C"/>
<rect y="102" width="118" height="20" fill="#9ED8FF"/>
<rect y="142" width="118" height="20" fill="#006CFF"/>
<rect y="122" width="118" height="20" fill="#47A6FF"/>
<rect y="82" width="118" height="20" fill="#C4E7FF"/>
<rect x="142.852" y="142.852" width="126.296" height="18.2963" rx="1.90072" fill="white" stroke="#006CFF" stroke-width="1.7037"/>
<path d="M148 147L148 157" stroke="#0A0C0D" stroke-width="0.851852" stroke-linecap="round"/>
<rect x="162" y="114" width="16" height="16" rx="3.7344" fill="#006CFF"/>
<g clip-path="url(#clip0)">
<path d="M173.578 118.078L168.333 123.322L166.423 121.411C166.265 121.259 166.055 121.175 165.836 121.177C165.618 121.179 165.409 121.267 165.254 121.421C165.1 121.576 165.012 121.785 165.01 122.003C165.008 122.222 165.092 122.432 165.244 122.589L167.744 125.089C167.9 125.246 168.112 125.333 168.333 125.333C168.554 125.333 168.766 125.246 168.923 125.089L174.756 119.256C174.908 119.099 174.992 118.888 174.99 118.67C174.988 118.451 174.9 118.242 174.746 118.088C174.591 117.933 174.382 117.846 174.164 117.844C173.945 117.842 173.735 117.926 173.578 118.078Z" fill="white"/>
</g>
<rect x="142.5" y="114.5" width="15" height="15" rx="3.2344" fill="white" stroke="#A6B0B5"/>
<defs>
<filter id="filter0_d" x="138" y="0" width="164" height="107" filterUnits="userSpaceOnUse" color-interpolation-filters="sRGB">
<feFlood flood-opacity="0" result="BackgroundImageFix"/>
<feColorMatrix in="SourceAlpha" type="matrix" values="0 0 0 0 0 0 0 0 0 0 0 0 0 0 0 0 0 0 127 0"/>
<feOffset dy="1"/>
<feGaussianBlur stdDeviation="2"/>
<feColorMatrix type="matrix" values="0 0 0 0 0 0 0 0 0 0 0 0 0 0 0 0 0 0 0.15 0"/>
<feBlend mode="normal" in2="BackgroundImageFix" result="effect1_dropShadow"/>
<feBlend mode="normal" in="SourceGraphic" in2="effect1_dropShadow" result="shape"/>
</filter>
<clipPath id="clip0">
<rect x="165" y="117" width="9.99999" height="10" fill="white"/>
</clipPath>
</defs>
</svg>
