<?xml version="1.0" encoding="utf-8"?>
<!-- Generator: Adobe Illustrator 20.1.0, SVG Export Plug-In . SVG Version: 6.00 Build 0)  -->
<!DOCTYPE svg PUBLIC "-//W3C//DTD SVG 1.1//EN" "http://www.w3.org/Graphics/SVG/1.1/DTD/svg11.dtd">
<svg version="1.1" id="k-circle" xmlns="http://www.w3.org/2000/svg" xmlns:xlink="http://www.w3.org/1999/xlink" x="0px" y="0px"
	 viewBox="0 0 100 100" style="enable-background:new 0 0 100 100;" xml:space="preserve">
<style type="text/css">
	.st0{fill:#FFFFFF;}
</style>
<g>
	<polygon class="st0" points="52.8,44.4 67.9,29.8 72.1,29.8 72.1,25.5 57.1,25.5 57.1,29.8 61,29.8 39.1,50.9 39.1,29.8 45.3,29.8 
		45.3,25.5 28.5,25.5 28.5,29.8 34.3,29.8 34.3,68.3 28.5,68.3 28.5,72.6 45.3,72.6 45.3,68.3 39.1,68.3 39.1,57.6 49.3,47.8 
		63.1,68.3 57.3,68.3 57.3,72.6 74.1,72.6 74.1,68.3 68.9,68.3 	"/>
	<path class="st0" d="M50,0C22.4,0,0,22.4,0,50s22.4,50,50,50s50-22.4,50-50S77.6,0,50,0z M50,95.7C24.8,95.7,4.3,75.2,4.3,50
		S24.8,4.3,50,4.3S95.7,24.8,95.7,50S75.2,95.7,50,95.7z"/>
</g>
</svg>
