<?xml version="1.0" standalone="no"?>
<!DOCTYPE svg PUBLIC "-//W3C//DTD SVG 20010904//EN"
 "http://www.w3.org/TR/2001/REC-SVG-20010904/DTD/svg10.dtd">
<svg version="1.0" xmlns="http://www.w3.org/2000/svg"
 width="700.000000pt" height="700.000000pt" viewBox="0 0 700.000000 700.000000"
 preserveAspectRatio="xMidYMid meet">
<metadata>
Created by potrace 1.11, written by Peter Selinger 2001-2013
</metadata>
<g transform="translate(0.000000,700.000000) scale(0.100000,-0.100000)"
fill="#000000" stroke="none">
<path d="M3298 6996 c-1 -2 -41 -6 -88 -10 -100 -7 -225 -22 -295 -36 -27 -5
-63 -12 -80 -15 -68 -11 -95 -17 -190 -41 -628 -159 -1202 -491 -1653 -956
-118 -121 -137 -143 -237 -269 -425 -536 -684 -1192 -743 -1879 -9 -110 -8
-503 1 -600 9 -81 25 -209 33 -250 2 -14 7 -41 10 -60 3 -19 7 -42 9 -50 2 -8
7 -30 10 -48 3 -18 21 -92 39 -165 269 -1041 1018 -1911 2013 -2335 121 -52
272 -105 438 -155 112 -33 354 -83 458 -93 34 -3 65 -8 68 -10 15 -9 234 -19
414 -19 183 0 335 8 425 21 144 21 295 48 345 61 33 8 67 16 75 18 179 36 550
177 760 288 247 130 533 325 700 477 122 112 233 225 350 355 61 68 200 255
269 360 318 489 510 1045 559 1620 13 161 5 631 -13 720 -2 11 -7 40 -10 65
-3 25 -7 54 -9 65 -2 11 -11 61 -21 110 -125 668 -461 1305 -949 1797 -158
160 -428 383 -537 444 -10 6 -27 17 -36 25 -10 8 -29 21 -43 29 -14 8 -61 36
-105 62 -245 148 -565 280 -880 363 -179 48 -263 63 -555 101 -48 6 -526 15
-532 10z m492 -310 c71 -7 178 -21 225 -30 17 -3 46 -8 65 -11 97 -17 373 -86
415 -105 11 -5 49 -19 85 -31 536 -182 1070 -571 1454 -1059 100 -127 248
-364 329 -525 72 -144 196 -463 212 -544 2 -9 10 -41 19 -71 38 -134 74 -344
93 -550 13 -145 7 -492 -11 -640 -8 -59 -16 -114 -19 -130 -2 -8 -7 -37 -11
-65 -14 -89 -76 -327 -118 -450 -226 -667 -668 -1241 -1256 -1634 -66 -45
-123 -81 -125 -81 -3 0 -34 -18 -70 -40 -293 -178 -764 -339 -1127 -386 -25
-3 -56 -7 -70 -10 -145 -24 -679 -24 -751 0 -8 3 -39 7 -69 10 -165 17 -453
87 -640 157 -47 17 -103 38 -125 46 -66 24 -300 140 -386 191 -44 26 -87 52
-97 57 -70 41 -217 145 -292 206 -617 495 -1025 1172 -1164 1929 -3 14 -7 36
-10 49 -3 13 -8 49 -12 80 -3 31 -8 65 -10 76 -24 124 -24 587 1 755 1 14 6
50 9 80 4 30 9 62 11 70 2 8 7 31 10 50 19 111 78 339 120 457 183 526 489
982 905 1353 40 36 78 70 84 75 169 152 521 365 787 478 194 83 504 176 669
202 25 4 54 9 65 11 11 3 40 7 65 10 25 2 56 7 70 9 14 3 66 8 115 11 50 3 91
7 93 9 4 4 408 -4 462 -9z"/>
<path d="M2001 5210 c-4 -3 -7 -70 -6 -150 l1 -145 196 -1 c109 0 200 -3 204
-6 7 -8 8 -2677 1 -2685 -3 -2 -95 -5 -204 -5 l-198 0 1 -141 c1 -78 2 -146 3
-152 1 -7 202 -10 583 -9 l583 0 3 151 3 152 -211 -1 c-116 0 -213 2 -216 5
-4 4 -6 348 -5 643 l1 101 73 71 c39 39 99 97 132 128 33 32 158 152 278 268
120 116 223 213 228 214 5 2 9 -1 9 -6 0 -6 6 -17 13 -24 7 -7 98 -141 203
-298 105 -157 234 -347 285 -423 52 -75 101 -148 109 -162 8 -13 89 -133 178
-265 90 -133 162 -244 159 -247 -3 -2 -93 -5 -201 -5 l-196 0 0 -148 c0 -109
3 -149 13 -152 10 -3 1135 -2 1160 1 4 1 7 68 7 150 l0 149 -182 1 c-133 0
-185 4 -194 13 -6 7 -146 213 -310 458 -164 245 -375 559 -468 698 -94 139
-178 264 -186 277 -8 14 -46 70 -84 126 l-70 102 140 134 c76 74 245 238 375
364 130 126 261 252 290 280 30 28 97 93 150 146 l97 95 148 2 149 1 0 150 0
150 -522 0 c-459 0 -523 -2 -524 -15 -1 -20 -1 -228 0 -261 l1 -26 126 1 c69
1 128 -2 130 -5 2 -4 -80 -87 -183 -185 -102 -99 -212 -204 -243 -234 -169
-163 -491 -473 -549 -528 -228 -220 -488 -471 -507 -492 -13 -13 -26 -21 -29
-18 -8 7 -9 1444 -2 1455 3 5 100 8 216 7 l211 -1 0 151 0 151 -581 0 c-319 0
-584 -2 -588 -5z"/>
</g>
</svg>
